<?xml version="1.0" encoding="UTF-8" standalone="no"?>
<svg
   id="Layer_1"
   viewBox="0 0 155.739 92.195295"
   version="1.1"
   width="205.46866"
   height="121.63455"
   xmlns="http://www.w3.org/2000/svg">
  <defs
     id="defs1">
    <style
       id="style1">.cls-1{fill:#010101;}</style>
  </defs>
  <g
     id="g7"
     transform="translate(-0.13108326,-0.00475817)">
    <path
       class="cls-1"
       d="M 4.89,85.06 C -1.39,78.78 -1.51,69.4 4.86,63.03 11.14,56.75 20.55,56.84 26.83,63.12 33.11,69.4 33.2,78.81 26.92,85.09 20.51,91.5 11.17,91.34 4.89,85.06 Z M 21.75,68.2 c -3.65,-3.65 -8.89,-3.8 -12.2,-0.49 -3.43,3.43 -3.22,8.61 0.43,12.26 3.65,3.65 8.83,3.86 12.26,0.43 3.34,-3.34 3.16,-8.55 -0.49,-12.2 z"
       id="path1" />
    <path
       class="cls-1"
       d="m 48.33,63.69 c -5.09,5.09 -11.19,4.87 -15.57,0.49 l 4.75,-4.75 c 2.05,2.05 4.54,2.27 6.83,-0.03 1.38,-1.38 1.9,-3.25 0.52,-4.63 -1.47,-1.47 -3.8,-0.8 -7.11,0.67 -4.05,1.65 -9.01,3.49 -12.57,-0.06 -4.08,-4.08 -3.19,-9.5 0.8,-13.48 4.69,-4.69 10.42,-4.35 14.04,-0.74 l -4.44,4.44 c -1.56,-1.32 -3.62,-1.47 -5.45,0.37 -1.35,1.35 -1.59,3 -0.43,4.17 1.13,1.13 2.7,0.67 5.95,-0.67 5.58,-2.21 10.36,-3.49 14.25,0.4 4.08,4.08 2.88,9.38 -1.56,13.82 z"
       id="path2" />
    <path
       class="cls-1"
       d="m 63.19,26.7 c -6.28,-6.28 -6.4,-15.66 -0.03,-22.03 6.28,-6.28 15.69,-6.19 21.97,0.09 6.28,6.28 6.37,15.69 0.09,21.97 -6.41,6.41 -15.75,6.25 -22.03,-0.03 z M 80.04,9.85 C 76.39,6.2 71.15,6.05 67.84,9.36 c -3.43,3.43 -3.22,8.61 0.43,12.26 3.65,3.65 8.83,3.86 12.26,0.43 3.34,-3.34 3.16,-8.55 -0.49,-12.2 z"
       id="path3" />
    <path
       class="cls-1"
       d="M 67.12,34.75 71.8,39.43 59.63,51.6 38.32,30.29 43.07,25.54 59.7,42.17 Z"
       id="path4" />
    <path
       class="cls-1"
       d="m 151.46,80.4 -4.75,-4.75 -16.55,16.55 -4.84,-4.84 16.55,-16.55 -4.75,-4.75 4.41,-4.41 14.34,14.34 z"
       id="path5" />
    <path
       class="cls-1"
       d="m 121.73,74.99 -4.41,4.41 -12.48,-12.48 20.98,-20.98 12.47,12.47 -4.41,4.41 -7.75,-7.75 -3.84,3.84 7.03,7.03 -4.17,4.17 -7.03,-7.03 -4.14,4.14 7.76,7.76 z"
       id="path6" />
    <path
       class="cls-1"
       d="M 100.97,63.06 96.28,58.37 107.82,46.76 92.25,54.34 87.92,50.01 95.49,34.3 83.88,45.97 79.19,41.28 100.17,20.3 l 6.25,6.25 -9.58,18.93 18.83,-9.69 6.28,6.28 -20.98,20.98 z"
       id="path7" />
  </g>
</svg>
